<?xml version="1.0" encoding="UTF-8" standalone="no"?>
<svg
   xmlns:dc="http://purl.org/dc/elements/1.1/"
   xmlns:cc="http://creativecommons.org/ns#"
   xmlns:rdf="http://www.w3.org/1999/02/22-rdf-syntax-ns#"
   xmlns:svg="http://www.w3.org/2000/svg"
   xmlns="http://www.w3.org/2000/svg"
   xmlns:sodipodi="http://sodipodi.sourceforge.net/DTD/sodipodi-0.dtd"
   xmlns:inkscape="http://www.inkscape.org/namespaces/inkscape"
   viewBox="0 0 612 792"
   id="svg2"
   height="792"
   width="612"
   version="1.1"
   sodipodi:docname="ricardog.svg"
   inkscape:version="0.92.4 (5da689c313, 2019-01-14)">
  <sodipodi:namedview
     pagecolor="#ffffff"
     bordercolor="#666666"
     borderopacity="1"
     objecttolerance="10"
     gridtolerance="10"
     guidetolerance="10"
     inkscape:pageopacity="0"
     inkscape:pageshadow="2"
     inkscape:window-width="1920"
     inkscape:window-height="1017"
     id="namedview3763"
     showgrid="false"
     inkscape:zoom="1.0707071"
     inkscape:cx="2.4622662"
     inkscape:cy="396"
     inkscape:window-x="-8"
     inkscape:window-y="-8"
     inkscape:window-maximized="1"
     inkscape:current-layer="svg2" />
  <metadata
     id="metadata20">
    <rdf:RDF>
      <cc:Work
         rdf:about="">
        <dc:format>image/svg+xml</dc:format>
        <dc:type
           rdf:resource="http://purl.org/dc/dcmitype/StillImage" />
      </cc:Work>
    </rdf:RDF>
  </metadata>
  <defs
     id="defs18" />
  <path
     id="path14"
     style="fill:#dc3545;stroke:#ffffff;stroke-width:7.08659983;stroke-linecap:butt;stroke-linejoin:miter;stroke-dasharray:none;fill-opacity:1"
     d="m 289.8306,125.8495 c 125.04086,0 230.74472,82.79154 265.28435,196.54741 7.74889,25.52088 11.91595,52.60025 11.91595,80.65289 0,112.11693 -67.53806,213.1949 -171.11874,256.09776 C 292.33168,702.05034 173.10865,678.32836 93.830345,599.05005 14.552042,519.77175 -9.1699394,400.54872 33.732838,296.96824 76.635703,193.38756 177.71367,125.8495 289.8306,125.8495 Z"
     inkscape:connector-curvature="0"
     sodipodi:nodetypes="sssssss" />
  <path
     id="path4"
     style="fill:none;stroke:#ffffff;stroke-width:7.08659983;stroke-linecap:butt;stroke-linejoin:miter;stroke-dasharray:none"
     d="m 136.8963,391.0885 c 5.6446,15.1882 38.3186,73.4088 35.3878,82.1749 -6.4132,19.1826 -67.3856,81.7103 -86.1611,99.9329 11.6349,-62.8387 57.9708,-286.269 84.8776,-341.8541 8.2727,-17.0894 7.1271,-22.2164 9.3504,3.2213 3.1138,35.6282 -12.9607,147.0481 -28.0319,186.796 -2.309,6.0895 -5.7316,26.928 0.2292,1.6943 3.4184,-14.4713 8.5498,-24.7785 17.8603,-11.7944 45.9245,64.0444 59.3847,16.4849 28.9019,-25.4458 -9.7614,-13.4267 38.5882,36.4449 35.2999,36.708 -12.5272,1.0016 5.2729,-106.2959 -3.3597,-47.797 -5.2611,35.6514 22.8975,35.8503 27.0164,19.5819 3.253,-12.8485 -6.1596,-76.0625 -4.3637,-35.2304 2.026,46.0566 62.8798,-4.8292 14.7476,-14.6834 -20.4557,-4.1879 4.0141,3.4811 13.8427,8.2198 30.0616,14.4951 21.4855,-30.9593 3.3708,-34.8555 -4.1611,-0.8947 33.4916,-7.5495 19.7622,-21.7913 -4.1062,5.4679 5.0771,37.263 23.2148,22.3709 5.6677,-4.6534 -11.3984,-60.51 -3.2255,-46.9753 2.0061,3.3218 -2.9117,15.0225 4.9076,27.0177 18.8358,28.8953 61.1111,-28.9148 -39.6007,-95.1272 -1.8668,5.5527 96.9327,130.6559 77.2902,53.0269 -1.9113,-7.5538 -20.675,-27.9318 2.0705,4.8703 8.6599,12.4887 22.8379,-10.079 7.9087,-29.987 -13.0818,-17.4439 -39.915,17.5606 -11.1477,11.6171 9.5542,-1.9739 9.8657,-39.4264 16.396,-55.8841" />
  <path
     id="path6"
     style="fill:none;stroke:#ffffff;stroke-width:7.08659983;stroke-linecap:butt;stroke-linejoin:miter;stroke-dasharray:none"
     d="m 230.1735,509.9132 c 36.6398,-7.9184 62.7962,-42.9231 38.2011,-79.0829 -23.4798,-34.5196 -46.4854,164.4941 58.2492,114.5701 62.6643,-29.8702 -14.9374,-175.4872 -34.5731,20.7069" />
  <path
     id="path8"
     style="fill:none;stroke:#ffffff;stroke-width:7.08659983;stroke-linecap:butt;stroke-linejoin:miter;stroke-dasharray:none"
     d="m 349.8109,507.0849 c 25.4814,-13.6134 -4.0116,-73.5262 -0.6372,-57.5373 8.8423,41.9 57.5952,37.0741 29.5872,-7.117 -6.3469,-10.0136 -47.4994,-2.538 -14.2101,-1.5167 29.6169,0.9084 74.8874,6.6506 22.8516,-28.5184 -4.065,-2.7473 10.5276,3.6165 17.6885,-6.0991 22.8252,-30.9672 -21.0299,-26.9763 13.4652,-2.1494 17.4714,12.5742 9.9841,0.2461 10.9735,-21.5514 3.3356,-73.4743 -10.5532,-7.9283 -0.1174,1.0116 49.331,42.2601 46.2104,-84.567 29.1759,-52.5276 -16.5962,31.2159 37.1481,52.0865 33.933,-3.9059 -1.3587,-23.6645 -26.8552,-39.5489 -12.3866,-17.3454 15.8295,24.2925 66.8897,-12.4963 52.1575,21.1684 -3.3346,7.6199 -32.5018,1.4823 9.756,-30.9107" />
  <path
     id="path10"
     style="fill:none;stroke:#ffffff;stroke-width:7.08659983;stroke-linecap:butt;stroke-linejoin:miter;stroke-dasharray:none"
     d="m 188.6562,371.4766 c 4.6298,-0.2514 5.5519,-7.9344 -3.7971,-4.6973 -2.7223,7.8701 2.9577,4.743 3.7971,4.6973 z" />
  <path
     id="path12"
     style="fill:none;stroke:#ffffff;stroke-width:7.08659983;stroke-linecap:butt;stroke-linejoin:miter;stroke-dasharray:none"
     d="m 448.0818,313.3514 c -2.285,0.8929 -0.2999,-32.859 -0.525,-7.721 -0.0229,2.5503 1.0624,7.5112 0.525,7.721 z" />
</svg>
